<?xml version="1.0" encoding="UTF-8" standalone="no"?>
<!-- Created with Inkscape (http://www.inkscape.org/) -->

<svg
   version="1.1"
   id="svg2"
   width="246.804"
   height="230.66667"
   viewBox="0 0 246.804 230.66667"
   sodipodi:docname="bob.svg"
   inkscape:version="1.2.1 (9c6d41e410, 2022-07-14)"
   xmlns:inkscape="http://www.inkscape.org/namespaces/inkscape"
   xmlns:sodipodi="http://sodipodi.sourceforge.net/DTD/sodipodi-0.dtd"
   xmlns="http://www.w3.org/2000/svg"
   xmlns:svg="http://www.w3.org/2000/svg">
  <defs
     id="defs6">
    <clipPath
       clipPathUnits="userSpaceOnUse"
       id="clipPath18">
      <path
         d="M 0,173 H 185.103 V 0 H 0 Z"
         id="path16" />
    </clipPath>
  </defs>
  <sodipodi:namedview
     id="namedview4"
     pagecolor="#505050"
     bordercolor="#eeeeee"
     borderopacity="1"
     inkscape:showpageshadow="0"
     inkscape:pageopacity="0"
     inkscape:pagecheckerboard="0"
     inkscape:deskcolor="#505050"
     showgrid="false"
     inkscape:zoom="3.7109825"
     inkscape:cx="123.28271"
     inkscape:cy="115.33334"
     inkscape:window-width="933"
     inkscape:window-height="1044"
     inkscape:window-x="969"
     inkscape:window-y="18"
     inkscape:window-maximized="1"
     inkscape:current-layer="g10">
    <inkscape:page
       x="0"
       y="0"
       id="page8"
       width="246.804"
       height="230.66667" />
  </sodipodi:namedview>
  <g
     id="g10"
     inkscape:groupmode="layer"
     inkscape:label="Page 1"
     transform="matrix(1.3333333,0,0,-1.3333333,0,230.66667)">
    <g
       id="g12"
       style="fill:#fafafa;fill-opacity:1">
      <g
         id="g14"
         clip-path="url(#clipPath18)"
         style="fill:#fafafa;fill-opacity:1">
        <g
           id="g20"
           transform="translate(27.4551,109.332)"
           style="fill:#fafafa;fill-opacity:1">
          <path
             d="M 0,0 C 0.047,0.04 0.123,0.009 0.22,-0.091 0.287,-0.152 0.343,-0.2 0.384,-0.237 0.457,-0.287 0.533,-0.328 0.621,-0.363 l 2.868,-1.172 0.446,1.089 1.113,-0.456 -0.445,-1.087 3.521,-1.439 -0.519,-1.268 -8.22,3.357 0.287,0.712 C -0.179,-0.269 -0.073,-0.059 0,0 M 0.958,-2.473 2.03,-2.909 1.301,-4.699 C 1.91,-4.948 2.596,-5.028 3.36,-4.939 4.172,-4.846 4.802,-4.583 5.25,-4.153 5.3,-4.341 5.382,-4.547 5.499,-4.774 5.607,-5.005 5.725,-5.203 5.845,-5.366 5.446,-5.643 4.983,-5.851 4.462,-5.989 3.923,-6.13 3.398,-6.179 2.88,-6.135 3.258,-6.454 3.592,-6.919 3.885,-7.523 4.148,-8.057 4.33,-8.599 4.43,-9.146 4.233,-9.19 4.017,-9.261 3.788,-9.354 3.527,-9.454 3.299,-9.557 3.108,-9.665 3.138,-8.93 2.906,-8.194 2.42,-7.456 1.954,-6.739 1.406,-6.252 0.773,-5.993 l -0.796,-1.945 -1.07,0.438 z m -1.969,-0.614 1.02,-0.416 -1.064,-2.605 -1.019,0.418 z"
             style="fill:#fafafa;fill-opacity:1;fill-rule:nonzero;stroke:none"
             id="path22" />
        </g>
        <g
           id="g24"
           transform="translate(34.0732,120.7285)"
           style="fill:#fafafa;fill-opacity:1">
          <path
             d="M 0,0 C 0.05,0.021 0.111,-0.021 0.188,-0.118 0.231,-0.176 0.27,-0.22 0.299,-0.255 0.349,-0.302 0.404,-0.343 0.46,-0.38 L 7.421,-4.786 6.7,-5.918 l -7.503,4.752 0.449,0.712 C -0.188,-0.188 -0.067,-0.038 0,0 m -0.929,-1.636 c 0.062,0.022 0.135,-0.019 0.232,-0.122 0.05,-0.061 0.091,-0.106 0.123,-0.135 0.055,-0.049 0.114,-0.093 0.176,-0.134 l 6.694,-4.237 -0.694,-1.095 -3.791,2.402 -0.613,-0.972 -0.978,0.62 0.615,0.97 -2.534,1.604 0.401,0.632 c 0.176,0.278 0.299,0.433 0.369,0.467 m -1.473,-3.195 c 0.052,0.012 0.108,-0.044 0.17,-0.164 0.041,-0.062 0.073,-0.109 0.093,-0.147 0.047,-0.055 0.091,-0.103 0.141,-0.142 0.308,-0.217 0.554,-0.389 0.744,-0.517 0.29,-0.19 0.536,-0.335 0.744,-0.436 0.636,-0.308 1.251,-0.492 1.84,-0.553 0.7,-0.071 1.351,0.035 1.954,0.318 C 3.313,-6.645 3.366,-6.851 3.437,-7.093 3.51,-7.313 3.592,-7.526 3.683,-7.729 3.24,-7.928 2.73,-8.016 2.145,-7.995 c -0.493,0.012 -0.953,0.088 -1.389,0.231 0.31,-0.319 0.6,-0.743 0.87,-1.272 0.299,-0.582 0.478,-1.118 0.536,-1.61 -0.167,-0.012 -0.369,-0.044 -0.612,-0.106 -0.249,-0.054 -0.46,-0.116 -0.645,-0.183 -0.055,0.819 -0.36,1.592 -0.902,2.325 -0.665,0.887 -1.723,1.784 -3.173,2.687 l 0.425,0.673 c 0.161,0.255 0.275,0.394 0.343,0.419"
             style="fill:#fafafa;fill-opacity:1;fill-rule:nonzero;stroke:none"
             id="path26" />
        </g>
        <g
           id="g28"
           transform="translate(42.2207,130.1592)"
           style="fill:#fafafa;fill-opacity:1">
          <path
             d="M 0,0 C 0.053,0.009 0.105,-0.039 0.164,-0.15 0.196,-0.214 0.229,-0.267 0.249,-0.305 0.293,-0.36 0.337,-0.41 0.387,-0.455 l 6.07,-5.566 -0.905,-0.99 -2.877,2.64 -0.46,-0.498 2.619,-2.402 -0.894,-0.976 -6.172,5.66 0.612,0.669 c 0.202,0.219 0.334,0.336 0.395,0.351 0.047,0.011 0.091,-0.04 0.141,-0.152 0.023,-0.064 0.05,-0.115 0.073,-0.153 0.035,-0.059 0.082,-0.114 0.135,-0.164 l 2.241,-2.052 0.454,0.498 -2.815,2.584 0.568,0.619 C -0.217,-0.155 -0.073,-0.026 0,0 m -2.452,-3.717 0.852,-0.78 -1.605,-1.752 2.897,-2.66 0.223,0.246 c 0.231,0.251 0.466,0.527 0.706,0.837 0.299,0.379 0.557,0.739 0.779,1.08 L 2.37,-7.371 C 2.083,-7.831 1.717,-8.33 1.269,-8.874 0.981,-9.231 0.639,-9.627 0.24,-10.063 l -0.603,-0.657 -4.623,4.241 z"
             style="fill:#fafafa;fill-opacity:1;fill-rule:nonzero;stroke:none"
             id="path30" />
        </g>
        <g
           id="g32"
           transform="translate(56.377,134.8584)"
           style="fill:#fafafa;fill-opacity:1">
          <path
             d="m 0,0 c 0.062,-0.006 0.105,-0.076 0.135,-0.211 0.014,-0.079 0.029,-0.143 0.047,-0.19 0.023,-0.074 0.055,-0.144 0.099,-0.211 l 0.51,-0.796 3.258,2.085 0.636,-0.996 -7.483,-4.788 -0.636,0.997 3.08,1.969 -0.903,1.412 0.639,0.409 C -0.299,-0.114 -0.091,-0.008 0,0 m -2.862,-0.659 3.577,2.291 -0.604,0.943 -3.58,-2.29 z m 2.9,5.923 C 0.091,5.27 0.135,5.217 0.17,5.106 0.179,5.06 0.188,5.021 0.199,4.992 0.217,4.954 0.237,4.916 0.261,4.879 L 2.455,1.45 -3.428,-2.316 -5.897,1.543 -5.221,1.978 c 0.276,0.175 0.451,0.266 0.531,0.27 0.058,0 0.096,-0.051 0.12,-0.153 0.017,-0.048 0.026,-0.087 0.029,-0.115 0.018,-0.038 0.038,-0.076 0.062,-0.113 l 0.418,-0.654 3.578,2.288 -0.683,1.069 0.653,0.419 c 0.282,0.181 0.466,0.27 0.551,0.275"
             style="fill:#fafafa;fill-opacity:1;fill-rule:nonzero;stroke:none"
             id="path34" />
        </g>
        <g
           id="g36"
           transform="translate(67,145.748)"
           style="fill:#fafafa;fill-opacity:1">
          <path
             d="M 0,0 C 0.117,0.036 0.202,0.053 0.258,0.05 0.308,0.044 0.34,0.021 0.357,-0.019 0.369,-0.047 0.378,-0.105 0.378,-0.19 0.381,-0.275 0.387,-0.343 0.396,-0.396 0.41,-0.476 0.431,-0.557 0.469,-0.636 L 1.348,-2.725 2.429,-2.268 2.9,-3.387 1.816,-3.841 2.707,-5.948 1.444,-6.48 -1.099,-0.451 -0.51,-0.204 C -0.287,-0.11 -0.117,-0.042 0,0 m -2.35,-7.347 c 0.059,-0.007 0.091,-0.082 0.094,-0.22 0.006,-0.065 0.012,-0.116 0.015,-0.156 0.012,-0.061 0.032,-0.12 0.055,-0.176 l 0.405,-0.963 5.092,2.144 0.448,-1.066 -6.352,-2.676 -1.107,2.626 0.744,0.312 c 0.316,0.134 0.521,0.193 0.606,0.175 m -2.188,3.597 c -0.076,-0.272 -0.041,-0.589 0.108,-0.946 0.156,-0.367 0.355,-0.616 0.607,-0.75 0.272,-0.153 0.577,-0.158 0.92,-0.014 0.313,0.131 0.509,0.348 0.58,0.647 0.073,0.277 0.032,0.594 -0.117,0.952 -0.153,0.354 -0.349,0.6 -0.598,0.744 -0.261,0.145 -0.548,0.151 -0.861,0.02 -0.34,-0.143 -0.554,-0.36 -0.639,-0.653 m 2.15,1.74 c 0.534,-0.251 0.932,-0.691 1.199,-1.323 0.266,-0.629 0.301,-1.225 0.108,-1.781 -0.211,-0.611 -0.674,-1.068 -1.389,-1.369 -0.747,-0.314 -1.418,-0.334 -2.012,-0.065 -0.539,0.248 -0.944,0.689 -1.21,1.319 -0.267,0.63 -0.299,1.227 -0.1,1.785 0.226,0.611 0.709,1.074 1.456,1.386 0.715,0.303 1.365,0.318 1.948,0.048"
             style="fill:#fafafa;fill-opacity:1;fill-rule:nonzero;stroke:none"
             id="path38" />
        </g>
        <g
           id="g40"
           transform="translate(79.6709,149.1201)"
           style="fill:#fafafa;fill-opacity:1">
          <path
             d="M 0,0 C 0.056,-0.014 0.073,-0.076 0.053,-0.188 0.044,-0.26 0.038,-0.313 0.044,-0.352 0.041,-0.428 0.05,-0.501 0.064,-0.574 l 1.811,-8.063 -1.336,-0.301 -1.945,8.668 0.802,0.182 C -0.272,-0.015 -0.07,0.015 0,0 m -3.126,-1.367 0.812,-3.602 -2.91,-0.653 0.346,-1.535 0.308,0.069 c 0.553,0.124 1.087,0.266 1.602,0.428 0.703,0.207 1.324,0.431 1.858,0.672 l 0.331,-0.826 0.085,-0.219 C -1.354,-7.307 -2.06,-7.562 -2.807,-7.793 -3.448,-7.992 -4.104,-8.17 -4.775,-8.32 l -1.184,-0.267 -0.853,3.794 2.872,0.645 -0.302,1.344 -2.889,-0.649 -0.255,1.129 z"
             style="fill:#fafafa;fill-opacity:1;fill-rule:nonzero;stroke:none"
             id="path42" />
        </g>
        <g
           id="g44"
           transform="translate(92.1309,150.0869)"
           style="fill:#fafafa;fill-opacity:1">
          <path
             d="M 0,0 C 0.064,-0.033 0.07,-0.12 0.021,-0.26 -0.012,-0.34 -0.032,-0.408 -0.044,-0.466 -0.064,-0.56 -0.073,-0.652 -0.07,-0.744 l 0.354,-8.08 -1.365,-0.062 -0.205,4.652 -1.562,-0.07 -0.052,1.156 1.564,0.069 -0.135,3.07 0.747,0.032 C -0.316,0.041 -0.076,0.032 0,0 m -3.038,-0.838 0.05,-1.154 -3.39,-0.15 0.167,-3.884 0.372,0.017 c 0.53,0.024 1.087,0.071 1.67,0.148 0.662,0.09 1.269,0.197 1.819,0.32 l 0.079,-0.553 0.091,-0.597 C -2.818,-6.83 -3.524,-6.955 -4.283,-7.063 -5.057,-7.169 -5.757,-7.236 -6.387,-7.266 l -1.136,-0.049 -0.276,6.269 z"
             style="fill:#fafafa;fill-opacity:1;fill-rule:nonzero;stroke:none"
             id="path46" />
        </g>
        <g
           id="g48"
           transform="translate(109.4922,147.6875)"
           style="fill:#fafafa;fill-opacity:1">
          <path
             d="m 0,0 c 0.044,-0.048 0.029,-0.134 -0.056,-0.253 -0.038,-0.062 -0.067,-0.113 -0.088,-0.151 -0.026,-0.059 -0.044,-0.12 -0.058,-0.188 l -0.141,-0.659 1.149,-0.246 -0.241,-1.131 -1.151,0.244 -0.19,-0.897 1.148,-0.243 -0.24,-1.131 -1.149,0.246 -0.193,-0.906 -1.342,0.285 1.157,5.412 0.712,-0.151 C -0.302,0.149 -0.073,0.071 0,0 m -6.105,-0.327 c -0.211,-0.156 -0.352,-0.4 -0.422,-0.731 -0.077,-0.345 -0.047,-0.63 0.082,-0.852 0.137,-0.243 0.381,-0.402 0.732,-0.478 0.343,-0.073 0.627,-0.026 0.85,0.141 0.211,0.149 0.351,0.398 0.425,0.741 0.07,0.333 0.043,0.612 -0.085,0.843 -0.138,0.244 -0.381,0.402 -0.721,0.475 -0.343,0.074 -0.633,0.027 -0.861,-0.139 m -0.162,-5.008 c -0.354,-0.064 -0.556,-0.209 -0.606,-0.439 -0.053,-0.252 0.067,-0.487 0.363,-0.702 0.32,-0.239 0.829,-0.432 1.524,-0.579 0.673,-0.145 1.204,-0.173 1.588,-0.085 0.357,0.077 0.562,0.241 0.618,0.494 0.047,0.229 -0.074,0.444 -0.364,0.646 -0.328,0.22 -0.82,0.401 -1.485,0.542 -0.697,0.15 -1.245,0.19 -1.638,0.123 m 2.91,5.207 c 0.301,-0.48 0.383,-1.033 0.252,-1.66 -0.135,-0.623 -0.437,-1.092 -0.909,-1.406 -0.521,-0.351 -1.166,-0.444 -1.93,-0.28 -0.78,0.166 -1.339,0.512 -1.673,1.039 -0.302,0.472 -0.387,1.029 -0.252,1.662 0.135,0.627 0.436,1.098 0.908,1.415 0.53,0.354 1.181,0.448 1.954,0.284 0.765,-0.164 1.316,-0.516 1.65,-1.054 m 1.388,-5.422 c 0.487,-0.432 0.68,-0.892 0.574,-1.383 -0.108,-0.505 -0.474,-0.863 -1.095,-1.071 -0.695,-0.237 -1.597,-0.237 -2.701,-0.001 -1.114,0.236 -1.946,0.606 -2.488,1.108 -0.483,0.443 -0.676,0.919 -0.565,1.424 0.102,0.49 0.466,0.832 1.087,1.027 0.697,0.218 1.605,0.207 2.719,-0.031 1.098,-0.234 1.921,-0.591 2.469,-1.073"
             style="fill:#fafafa;fill-opacity:1;fill-rule:nonzero;stroke:none"
             id="path50" />
        </g>
        <g
           id="g52"
           transform="translate(121.6123,143.3281)"
           style="fill:#fafafa;fill-opacity:1">
          <path
             d="M 0,0 C 0.044,-0.059 0.012,-0.138 -0.088,-0.243 -0.155,-0.305 -0.205,-0.357 -0.237,-0.404 -0.293,-0.48 -0.34,-0.563 -0.375,-0.647 l -1.799,-4.433 -1.271,0.516 0.969,2.381 -1.611,0.657 0.422,1.037 1.611,-0.655 0.712,1.748 0.695,-0.282 C -0.272,0.17 -0.056,0.062 0,0 m -7.277,-4.116 c -0.361,0 -0.586,-0.115 -0.68,-0.343 -0.094,-0.229 -0.012,-0.475 0.24,-0.738 0.279,-0.293 0.756,-0.575 1.424,-0.847 0.659,-0.267 1.189,-0.394 1.594,-0.378 0.366,0.011 0.595,0.132 0.688,0.36 0.091,0.223 0.006,0.463 -0.249,0.719 -0.281,0.275 -0.747,0.544 -1.4,0.808 -0.68,0.278 -1.219,0.417 -1.617,0.419 m 3.006,5.601 C -4.251,1.442 -4.286,1.371 -4.38,1.269 -4.43,1.216 -4.468,1.172 -4.494,1.136 -4.538,1.075 -4.573,1.011 -4.6,0.949 -4.787,0.486 -4.822,-0.076 -4.705,-0.735 c 0.138,-0.789 0.477,-1.448 1.017,-1.972 -0.185,-0.052 -0.399,-0.129 -0.633,-0.233 -0.202,-0.083 -0.425,-0.19 -0.671,-0.318 -0.296,0.402 -0.533,0.835 -0.706,1.307 -0.176,0.483 -0.255,0.893 -0.229,1.23 -0.272,-0.293 -0.638,-0.557 -1.093,-0.794 -0.477,-0.238 -0.99,-0.416 -1.543,-0.53 -0.068,0.193 -0.159,0.407 -0.27,0.639 -0.123,0.235 -0.246,0.442 -0.369,0.618 0.835,0.067 1.538,0.308 2.112,0.721 0.651,0.468 1.169,1.183 1.559,2.144 L -4.752,1.758 C -4.471,1.646 -4.31,1.554 -4.271,1.485 m 1.248,-6.589 c 0.41,-0.515 0.518,-1.004 0.331,-1.473 -0.197,-0.481 -0.624,-0.768 -1.278,-0.86 -0.729,-0.104 -1.623,0.06 -2.686,0.493 -1.084,0.437 -1.846,0.947 -2.297,1.53 -0.401,0.522 -0.504,1.024 -0.308,1.505 0.191,0.47 0.61,0.744 1.257,0.827 0.73,0.091 1.632,-0.082 2.704,-0.519 1.067,-0.433 1.822,-0.934 2.277,-1.503"
             style="fill:#fafafa;fill-opacity:1;fill-rule:nonzero;stroke:none"
             id="path54" />
        </g>
        <g
           id="g56"
           transform="translate(136.2637,133.3564)"
           style="fill:#fafafa;fill-opacity:1">
          <path
             d="M 0,0 -0.691,-0.927 -6.498,3.41 -5.804,4.338 Z M -4.456,1.471 C -4.444,1.429 -4.479,1.385 -4.57,1.335 -4.608,1.317 -4.638,1.3 -4.655,1.282 -4.688,1.262 -4.711,1.234 -4.731,1.2 l -0.727,-1.21 1.09,-0.814 1.277,1.355 0.68,-0.509 c 0.246,-0.184 0.381,-0.316 0.404,-0.392 0.003,-0.042 -0.05,-0.088 -0.164,-0.135 -0.05,-0.016 -0.085,-0.03 -0.111,-0.044 -0.041,-0.021 -0.071,-0.05 -0.094,-0.079 l -0.964,-0.966 1.401,-1.047 -0.68,-0.911 -5.886,4.398 0.68,0.911 1.321,-0.987 0.949,1.601 0.765,-0.57 c 0.208,-0.156 0.316,-0.266 0.334,-0.33 m 1.471,-6.809 -0.692,-0.926 -7.116,5.317 0.691,0.926 z"
             style="fill:#fafafa;fill-opacity:1;fill-rule:nonzero;stroke:none"
             id="path58" />
        </g>
        <g
           id="g60"
           transform="translate(144.9443,124.7314)"
           style="fill:#fafafa;fill-opacity:1">
          <path
             d="M 0,0 -2.2,-2.053 -6.026,2.044 -6.683,1.43 -2.748,-2.781 -3.56,-3.54 l -4.872,5.214 2.28,2.128 3.832,-4.097 0.565,0.531 -3.829,4.096 0.817,0.765 z m -5.3,-1.202 c 0.015,-0.064 -0.038,-0.111 -0.155,-0.146 -0.067,-0.018 -0.117,-0.037 -0.152,-0.053 -0.059,-0.03 -0.109,-0.065 -0.156,-0.106 l -0.58,-0.544 2.572,-2.752 -0.867,-0.808 -6.064,6.49 0.864,0.809 2.567,-2.744 1.028,0.96 0.51,-0.549 c 0.266,-0.285 0.41,-0.469 0.433,-0.557"
             style="fill:#fafafa;fill-opacity:1;fill-rule:nonzero;stroke:none"
             id="path62" />
        </g>
        <g
           id="g64"
           transform="translate(151.791,114.6963)"
           style="fill:#fafafa;fill-opacity:1">
          <path
             d="m 0,0 c -0.794,-0.508 -1.717,-1.021 -2.763,-1.537 -1.028,-0.511 -1.892,-0.887 -2.592,-1.132 l -0.736,1.146 c 0.683,0.275 1.418,0.606 2.203,0.992 0.847,0.411 1.544,0.789 2.083,1.135 l -2.926,4.576 1.004,0.644 z m -5.309,-4.79 -4.787,7.483 1.008,0.644 4.784,-7.483 z"
             style="fill:#fafafa;fill-opacity:1;fill-rule:nonzero;stroke:none"
             id="path66" />
        </g>
        <g
           id="g68"
           transform="translate(158.0576,103.0596)"
           style="fill:#fafafa;fill-opacity:1">
          <path
             d="M 0,0 C -0.012,-0.051 -0.079,-0.08 -0.202,-0.086 -0.275,-0.091 -0.334,-0.096 -0.378,-0.1 -0.445,-0.115 -0.513,-0.138 -0.574,-0.164 l -4.037,-1.709 -0.525,1.234 1.33,0.563 -0.266,0.624 -1.327,-0.564 -0.516,1.217 4.532,1.92 0.355,-0.833 C -0.911,2.016 -0.861,1.846 -0.876,1.779 -0.882,1.737 -0.949,1.715 -1.069,1.717 -1.14,1.723 -1.195,1.723 -1.239,1.715 -1.31,1.707 -1.377,1.688 -1.444,1.658 L -3.006,0.998 -2.742,0.375 -0.501,1.326 -0.17,0.551 C -0.053,0.261 0.009,0.076 0,0 M -2.106,4.233 -4.67,3.146 -5.505,5.115 -6.27,4.79 -6.129,4.457 C -5.977,4.094 -5.801,3.741 -5.607,3.393 -5.399,3.026 -5.191,2.695 -4.978,2.404 L -5.877,1.802 c -0.272,0.352 -0.545,0.8 -0.82,1.341 -0.211,0.399 -0.446,0.906 -0.703,1.519 l -0.411,0.963 2.769,1.174 0.835,-1.968 0.562,0.237 -0.834,1.967 1.007,0.428 z M -9.261,2.479 -7.523,-1.62 -6.46,-1.169 -8.194,2.93 Z m 4.289,-4.506 -3.167,-1.34 -0.536,1.26 0.188,0.08 -1.735,4.098 -0.19,-0.079 -0.536,1.26 3.173,1.344 z"
             style="fill:#fafafa;fill-opacity:1;fill-rule:nonzero;stroke:none"
             id="path70" />
        </g>
        <g
           id="g72"
           transform="translate(27.2031,91.2607)"
           style="fill:#fafafa;fill-opacity:1">
          <path
             d="m 0,0 c 0,-0.834 -0.671,-1.508 -1.503,-1.508 -0.826,0 -1.506,0.674 -1.506,1.508 0,0.83 0.68,1.507 1.506,1.507 C -0.671,1.507 0,0.83 0,0"
             style="fill:#fafafa;fill-opacity:1;fill-rule:nonzero;stroke:none"
             id="path74" />
        </g>
        <g
           id="g76"
           transform="translate(158.1689,91.2607)"
           style="fill:#fafafa;fill-opacity:1">
          <path
             d="m 0,0 c 0,-0.834 -0.671,-1.508 -1.503,-1.508 -0.835,0 -1.509,0.674 -1.509,1.508 0,0.83 0.674,1.507 1.509,1.507 C -0.671,1.507 0,0.83 0,0"
             style="fill:#fafafa;fill-opacity:1;fill-rule:nonzero;stroke:none"
             id="path78" />
        </g>
        <g
           id="g80"
           transform="translate(70.8965,85.6104)"
           style="fill:#fafafa;fill-opacity:1">
          <path
             d="m 0,0 c 0.34,-0.047 0.747,-0.047 1.342,-0.047 1.567,0 2.959,0.618 2.959,2.235 0,1.524 -1.392,2.14 -3.12,2.14 L 0,4.328 Z m 0,6.811 h 1.134 c 1.843,0 2.804,0.751 2.804,1.89 0,1.16 -0.891,1.774 -2.461,1.774 C 0.703,10.475 0.27,10.428 0,10.383 Z m -3.439,5.872 c 0.908,0.161 2.73,0.319 4.485,0.319 2.115,0 3.41,-0.207 4.553,-0.861 1.069,-0.575 1.822,-1.623 1.822,-3.033 0,-1.342 -0.8,-2.595 -2.531,-3.256 V 5.809 C 6.645,5.353 7.942,4.011 7.942,2.049 7.942,0.636 7.304,-0.454 6.349,-1.23 5.232,-2.115 3.366,-2.613 0.316,-2.613 c -1.708,0 -2.982,0.111 -3.755,0.222 z"
             style="fill:#fafafa;fill-opacity:1;fill-rule:nonzero;stroke:none"
             id="path82" />
        </g>
        <g
           id="g84"
           transform="translate(90.3379,89.6416)"
           style="fill:#fafafa;fill-opacity:1">
          <path
             d="m 0,0 h -5.648 v -3.642 h 6.31 v -2.85 H -9.105 V 8.856 H 0.343 V 6.01 H -5.648 V 2.824 l 5.648,0 z"
             style="fill:#fafafa;fill-opacity:1;fill-rule:nonzero;stroke:none"
             id="path86" />
        </g>
        <g
           id="g88"
           transform="translate(93.4785,86.7266)"
           style="fill:#fafafa;fill-opacity:1">
          <path
             d="m 0,0 c 0.911,-0.48 2.37,-0.955 3.85,-0.955 1.593,0 2.437,0.662 2.437,1.663 0,0.95 -0.729,1.5 -2.572,2.137 -2.552,0.912 -4.236,2.324 -4.236,4.552 0,2.625 2.209,4.603 5.803,4.603 1.758,0 3.006,-0.34 3.917,-0.773 L 8.426,8.446 C 7.834,8.745 6.718,9.176 5.238,9.176 3.735,9.176 3.009,8.473 3.009,7.698 3.009,6.718 3.85,6.286 5.854,5.534 8.566,4.53 9.814,3.12 9.814,0.955 9.814,-1.617 7.857,-3.8 3.645,-3.8 c -1.752,0 -3.484,0.477 -4.348,0.957 z"
             style="fill:#fafafa;fill-opacity:1;fill-rule:nonzero;stroke:none"
             id="path90" />
        </g>
        <g
           id="g92"
           transform="translate(108.6455,95.583)"
           style="fill:#fafafa;fill-opacity:1">
          <path
             d="M 0,0 H -4.143 V 2.915 H 7.649 V 0 H 3.46 V -12.434 H 0 Z"
             style="fill:#fafafa;fill-opacity:1;fill-rule:nonzero;stroke:none"
             id="path94" />
        </g>
        <g
           id="g96"
           transform="translate(70.8965,50.6797)"
           style="fill:#fafafa;fill-opacity:1">
          <path
             d="m 0,0 c 0.34,-0.047 0.747,-0.047 1.342,-0.047 1.567,0 2.959,0.615 2.959,2.235 0,1.524 -1.392,2.136 -3.12,2.136 H 0 Z m 0,6.806 h 1.134 c 1.843,0 2.804,0.752 2.804,1.89 0,1.164 -0.891,1.775 -2.461,1.775 C 0.703,10.471 0.27,10.429 0,10.383 Z m -3.439,5.877 c 0.908,0.158 2.73,0.316 4.485,0.316 2.115,0 3.41,-0.202 4.553,-0.865 1.069,-0.568 1.822,-1.616 1.822,-3.029 0,-1.341 -0.8,-2.594 -2.531,-3.254 V 5.804 C 6.645,5.353 7.942,4.005 7.942,2.05 7.942,0.639 7.304,-0.457 6.349,-1.228 5.232,-2.118 3.366,-2.616 0.316,-2.616 c -1.708,0 -2.982,0.114 -3.755,0.225 z"
             style="fill:#fafafa;fill-opacity:1;fill-rule:nonzero;stroke:none"
             id="path98" />
        </g>
        <g
           id="g100"
           transform="translate(90.3379,54.7109)"
           style="fill:#fafafa;fill-opacity:1">
          <path
             d="m 0,0 h -5.648 v -3.645 h 6.31 V -6.489 H -9.105 V 8.859 H 0.343 V 6.009 H -5.648 V 2.821 l 5.648,0 z"
             style="fill:#fafafa;fill-opacity:1;fill-rule:nonzero;stroke:none"
             id="path102" />
        </g>
        <g
           id="g104"
           transform="translate(93.4785,51.7959)"
           style="fill:#fafafa;fill-opacity:1">
          <path
             d="m 0,0 c 0.911,-0.478 2.37,-0.958 3.85,-0.958 1.593,0 2.437,0.662 2.437,1.663 0,0.953 -0.729,1.502 -2.572,2.143 -2.552,0.911 -4.236,2.32 -4.236,4.554 0,2.618 2.209,4.595 5.803,4.595 1.758,0 3.006,-0.34 3.917,-0.772 L 8.426,8.443 C 7.834,8.744 6.718,9.176 5.238,9.176 3.735,9.176 3.009,8.473 3.009,7.693 c 0,-0.978 0.841,-1.409 2.845,-2.162 2.712,-1 3.96,-2.412 3.96,-4.576 0,-2.57 -1.957,-4.755 -6.169,-4.755 -1.752,0 -3.484,0.475 -4.348,0.955 z"
             style="fill:#fafafa;fill-opacity:1;fill-rule:nonzero;stroke:none"
             id="path106" />
        </g>
        <g
           id="g108"
           transform="translate(108.6455,60.6523)"
           style="fill:#fafafa;fill-opacity:1">
          <path
             d="M 0,0 H -4.143 V 2.918 H 7.649 V 0 H 3.46 V -12.431 H 0 Z"
             style="fill:#fafafa;fill-opacity:1;fill-rule:nonzero;stroke:none"
             id="path110" />
        </g>
        <g
           id="g112"
           transform="translate(68.9951,73.2939)"
           style="fill:#fafafa;fill-opacity:1">
          <path
             d="m 0,0 c 0,-2.432 1.304,-4.591 3.618,-4.591 2.312,0 3.615,2.13 3.615,4.693 0,2.257 -1.169,4.606 -3.597,4.606 C 1.21,4.708 0,2.458 0,0 m 8.777,0.164 c 0,-3.865 -2.364,-5.941 -5.241,-5.941 -3,0 -5.074,2.328 -5.074,5.745 0,3.58 2.206,5.924 5.226,5.924 3.097,0 5.089,-2.363 5.089,-5.728"
             style="fill:#fafafa;fill-opacity:1;fill-rule:nonzero;stroke:none"
             id="path114" />
        </g>
        <g
           id="g116"
           transform="translate(79.6533,78.9863)"
           style="fill:#fafafa;fill-opacity:1">
          <path
             d="M 0,0 H 6.076 V -1.222 H 1.474 V -4.975 H 5.728 V -6.182 H 1.474 v -5.106 H 0 Z"
             style="fill:#fafafa;fill-opacity:1;fill-rule:nonzero;stroke:none"
             id="path118" />
        </g>
        <g
           id="g120"
           transform="translate(92.8398,77.7471)"
           style="fill:#fafafa;fill-opacity:1">
          <path
             d="M 0,0 H -3.431 V 1.239 H 4.922 V 0 H 1.474 V -10.049 H 0 Z"
             style="fill:#fafafa;fill-opacity:1;fill-rule:nonzero;stroke:none"
             id="path122" />
        </g>
        <g
           id="g124"
           transform="translate(100.4805,78.9863)"
           style="fill:#fafafa;fill-opacity:1">
          <path
             d="M 0,0 V -4.723 H 5.458 V 0 H 6.932 V -11.288 H 5.458 v 5.294 H 0 v -5.294 H -1.477 V 0 Z"
             style="fill:#fafafa;fill-opacity:1;fill-rule:nonzero;stroke:none"
             id="path126" />
        </g>
        <g
           id="g128"
           transform="translate(115.7764,72.9922)"
           style="fill:#fafafa;fill-opacity:1">
          <path
             d="m 0,0 h -4.371 v -4.069 h 4.89 V -5.294 H -5.845 V 5.994 H 0.264 V 4.772 H -4.371 V 1.201 H 0 Z"
             style="fill:#fafafa;fill-opacity:1;fill-rule:nonzero;stroke:none"
             id="path130" />
        </g>
        <g
           id="g132"
           transform="translate(69.0039,114.6465)"
           style="fill:#fafafa;fill-opacity:1">
          <path
             d="M 0,0 C -0.902,0 -1.784,-0.368 -2.42,-1.015 L -14.9,-13.696 c -0.651,-0.657 -1.002,-1.557 -0.976,-2.47 0.026,-0.927 0.431,-1.81 1.113,-2.429 3.762,-3.408 5.567,-7.21 5.672,-11.965 0.07,-2.938 -1.233,-4.555 -3.035,-6.798 -1.84,-2.301 -4.119,-5.153 -4.292,-9.573 -0.794,-20.205 21.838,-37.494 37.242,-44.182 0.876,-0.381 1.902,-0.366 2.751,0.02 17.646,8.007 37.975,24.378 37.201,44.168 -0.175,4.412 -2.461,7.266 -4.292,9.557 -1.807,2.254 -3.108,3.873 -3.041,6.805 0.109,4.761 1.916,8.562 5.675,11.971 0.68,0.616 1.087,1.499 1.111,2.421 0.026,0.918 -0.329,1.82 -0.973,2.472 L 46.772,-1.015 C 46.137,-0.368 45.255,0 44.353,0 Z m 22.175,-95.442 c -1.026,0 -2.022,0.207 -2.965,0.615 -16.424,7.133 -40.547,25.82 -39.677,48.057 0.229,5.749 3.202,9.47 5.171,11.931 1.808,2.246 2.192,2.85 2.156,4.186 -0.082,3.666 -1.38,6.377 -4.341,9.058 -1.498,1.363 -2.385,3.293 -2.444,5.307 -0.058,2.012 0.718,3.992 2.139,5.434 L -5.303,1.825 C -3.914,3.237 -1.983,4.048 0,4.048 h 44.353 c 1.98,0 3.914,-0.811 5.305,-2.223 l 12.484,-12.682 c 1.412,-1.433 2.191,-3.414 2.135,-5.431 -0.058,-2.014 -0.949,-3.95 -2.44,-5.304 -2.965,-2.682 -4.263,-5.39 -4.348,-9.061 -0.029,-1.336 0.352,-1.94 2.142,-4.169 1.98,-2.478 4.96,-6.199 5.188,-11.947 0.853,-21.794 -20.783,-39.484 -39.571,-48.007 -0.961,-0.444 -1.998,-0.666 -3.073,-0.666"
             style="fill:#fafafa;fill-opacity:1;fill-rule:nonzero;stroke:none"
             id="path134" />
        </g>
      </g>
    </g>
  </g>
</svg>
