<?xml version="1.0" encoding="UTF-8" standalone="no"?>
<!-- Created with Inkscape (http://www.inkscape.org/) -->

<svg
   width="210mm"
   height="297mm"
   viewBox="0 0 210 297"
   version="1.1"
   id="svg5"
   xml:space="preserve"
   inkscape:version="1.2.1 (9c6d41e410, 2022-07-14)"
   sodipodi:docname="code.svg"
   xmlns:inkscape="http://www.inkscape.org/namespaces/inkscape"
   xmlns:sodipodi="http://sodipodi.sourceforge.net/DTD/sodipodi-0.dtd"
   xmlns="http://www.w3.org/2000/svg"
   xmlns:svg="http://www.w3.org/2000/svg"><sodipodi:namedview
     id="namedview7"
     pagecolor="#505050"
     bordercolor="#eeeeee"
     borderopacity="1"
     inkscape:showpageshadow="0"
     inkscape:pageopacity="0"
     inkscape:pagecheckerboard="0"
     inkscape:deskcolor="#505050"
     inkscape:document-units="mm"
     showgrid="false"
     inkscape:zoom="0.53921852"
     inkscape:cx="192.87171"
     inkscape:cy="511.85185"
     inkscape:window-width="1884"
     inkscape:window-height="1044"
     inkscape:window-x="18"
     inkscape:window-y="18"
     inkscape:window-maximized="1"
     inkscape:current-layer="layer1" /><defs
     id="defs2" /><g
     inkscape:label="Layer 1"
     inkscape:groupmode="layer"
     id="layer1"><path
       d="m 152.42135,170.22086 -42.31806,148.11652 c -1.61999,5.62037 -7.47178,8.86035 -13.09215,7.27343 -5.620368,-1.61999 -8.860344,-7.47179 -7.273416,-13.09215 L 132.05579,164.40873 c 1.61999,-5.61838 7.47178,-8.87159 13.09214,-7.26614 5.62037,1.60511 8.86035,7.46121 7.27342,13.07827 z m 34.31731,26.65046 37.0283,37.02831 c 4.13262,4.13262 4.13262,10.81093 0,14.94356 l -37.0283,37.02831 c -4.13264,4.13262 -10.81095,4.13262 -14.94357,0 -4.13263,-4.13262 -4.13263,-10.81095 0,-14.94357 l 29.52345,-29.55652 -29.52345,-29.55652 c -4.13263,-4.13263 -4.13263,-10.81094 0,-14.94357 4.13262,-4.13263 10.81093,-4.13263 14.94357,0 z m -116.374675,14.94357 -29.539991,29.55652 29.539991,29.55652 c 4.132624,4.13262 4.132624,10.81095 0,14.94357 -4.132622,4.13262 -10.810942,4.13262 -14.943565,0 L 18.382859,248.84319 c -4.131301,-4.13263 -4.131301,-10.81094 0,-14.94356 L 55.42042,196.87132 c 4.132623,-4.13263 10.810943,-4.13263 14.943565,0 4.132624,4.13263 4.132624,10.81094 0,14.94357 z"
       id="path1089"
       style="stroke-width:0.330609;fill:#212121;fill-opacity:1" /></g></svg>
