<?xml version="1.0" encoding="UTF-8" standalone="no"?>
<!-- Created with Inkscape (http://www.inkscape.org/) -->

<svg
   width="210mm"
   height="297mm"
   viewBox="0 0 210 297"
   version="1.1"
   id="svg5"
   xml:space="preserve"
   sodipodi:docname="grow.svg"
   inkscape:version="1.2.1 (9c6d41e410, 2022-07-14)"
   xmlns:inkscape="http://www.inkscape.org/namespaces/inkscape"
   xmlns:sodipodi="http://sodipodi.sourceforge.net/DTD/sodipodi-0.dtd"
   xmlns="http://www.w3.org/2000/svg"
   xmlns:svg="http://www.w3.org/2000/svg"><sodipodi:namedview
     id="namedview7"
     pagecolor="#505050"
     bordercolor="#eeeeee"
     borderopacity="1"
     inkscape:showpageshadow="0"
     inkscape:pageopacity="0"
     inkscape:pagecheckerboard="0"
     inkscape:deskcolor="#505050"
     inkscape:document-units="mm"
     showgrid="false"
     inkscape:zoom="0.64"
     inkscape:cx="359.375"
     inkscape:cy="637.5"
     inkscape:window-width="1884"
     inkscape:window-height="1044"
     inkscape:window-x="18"
     inkscape:window-y="18"
     inkscape:window-maximized="1"
     inkscape:current-layer="layer1" /><defs
     id="defs2" /><g
     inkscape:label="Layer 1"
     inkscape:groupmode="layer"
     id="layer1"><path
       d="m 135.3402,207.10857 c -6.73641,0 -12.17882,-5.78162 -12.17882,-12.93788 0,-7.15628 5.44241,-12.9379 12.17882,-12.9379 h 60.89413 c 6.73642,0 12.17883,5.78162 12.17883,12.9379 v 64.68947 c 0,7.15628 -5.44241,12.9379 -12.17883,12.9379 -6.73641,0 -12.17881,-5.78162 -12.17881,-12.9379 v -33.43637 l -64.47168,68.44955 c -4.75735,5.05387 -12.44523,5.05387 -17.20259,0 L 61.924735,251.29957 9.9858349,306.81123 c -4.7573501,5.05386 -12.46807,5.05386 -17.2246597,0 -4.7558302,-5.05386 -4.7558302,-13.2209 0,-18.27477 L 53.665965,223.84698 c 4.75735,-5.05387 12.44523,-5.05387 17.20258,0 l 40.114015,42.57377 55.8323,-59.67605 z"
       id="path14858"
       style="fill:#121212;fill-opacity:1;stroke:none;stroke-width:0.392269;stroke-opacity:0.666667" /></g></svg>
