<?xml version="1.0" encoding="UTF-8" standalone="no"?>
<!-- Created with Inkscape (http://www.inkscape.org/) -->

<svg
   width="210mm"
   height="297mm"
   viewBox="0 0 210 297"
   version="1.1"
   id="svg5"
   xml:space="preserve"
   inkscape:version="1.2.1 (9c6d41e410, 2022-07-14)"
   sodipodi:docname="stamp.svg"
   xmlns:inkscape="http://www.inkscape.org/namespaces/inkscape"
   xmlns:sodipodi="http://sodipodi.sourceforge.net/DTD/sodipodi-0.dtd"
   xmlns="http://www.w3.org/2000/svg"
   xmlns:svg="http://www.w3.org/2000/svg"><sodipodi:namedview
     id="namedview7"
     pagecolor="#505050"
     bordercolor="#eeeeee"
     borderopacity="1"
     inkscape:showpageshadow="0"
     inkscape:pageopacity="0"
     inkscape:pagecheckerboard="0"
     inkscape:deskcolor="#505050"
     inkscape:document-units="mm"
     showgrid="false"
     inkscape:zoom="0.70710678"
     inkscape:cx="917.8246"
     inkscape:cy="610.94026"
     inkscape:window-width="1884"
     inkscape:window-height="1044"
     inkscape:window-x="18"
     inkscape:window-y="18"
     inkscape:window-maximized="1"
     inkscape:current-layer="layer1" /><defs
     id="defs2" /><g
     inkscape:label="Layer 1"
     inkscape:groupmode="layer"
     id="layer1"><path
       d="m 157.47747,199.7859 h 13.49009 c 24.70525,0 44.70096,19.99568 44.70096,44.70093 0,8.34152 -5.34815,15.44577 -12.7717,18.07993 v 20.23517 c 0,10.57654 -8.581,19.15754 -19.15756,19.15754 H 43.250607 c -10.580553,0 -19.157544,-8.581 -19.157544,-19.15754 v -20.23517 c -7.439514,-2.63416 -12.771697,-9.73841 -12.771697,-18.07993 0,-24.70525 20.011652,-44.70093 44.700937,-44.70093 h 13.490108 c 11.93355,0 21.632064,-9.69852 21.632064,-21.63207 0,-6.98452 -3.671867,-13.29053 -7.9424,-18.75841 -5.028855,-6.50559 -8.022229,-14.64755 -8.022229,-23.46799 0,-21.16111 16.802764,-38.315091 38.315084,-38.315091 21.15313,0 38.31509,17.153981 38.31509,38.315091 0,8.82044 -2.99336,16.9624 -8.02222,23.46799 -4.27053,5.46788 -7.9424,11.77389 -7.9424,18.75841 0,11.93355 9.6985,21.63207 21.63207,21.63207 z m 19.87595,63.85848 H 49.636453 v 12.77169 H 177.35342 Z"
       id="path1089"
       style="fill:#212121;fill-opacity:1;stroke-width:0.399115" /></g></svg>
